<?xml version="1.0" encoding="UTF-8"?>
<svg width="74px" height="109px" viewBox="0 0 74 109" version="1.1" xmlns="http://www.w3.org/2000/svg" xmlns:xlink="http://www.w3.org/1999/xlink">
    <!-- Generator: Sketch 62 (91390) - https://sketch.com -->
    <title>2</title>
    <desc>Created with Sketch.</desc>
    <g id="Page-1" stroke="none" stroke-width="1" fill="none" fill-rule="evenodd">
        <g id="A4" transform="translate(-287.000000, -3249.000000)" fill="#282828" fill-rule="nonzero">
            <g id="Четвертый-экран" transform="translate(193.000000, 2607.000000)">
                <g id="Слайдер" transform="translate(0.000000, 556.000000)">
                    <g id="Текст" transform="translate(0.000000, 45.000000)">
                        <path d="M167.597168,150 L167.597168,133.59375 L124.018066,133.59375 L123.871582,133.227539 L141.449707,112.133789 C149.750488,102.807617 155.597656,95.5078125 158.991211,90.234375 C162.384766,84.9609375 164.081543,79.1259766 164.081543,72.7294922 C164.081543,63.3056641 161.054199,55.7983398 154.999512,50.2075195 C148.944824,44.6166992 140.44873,41.8212891 129.51123,41.8212891 C118.57373,41.8212891 109.85791,45.1049805 103.36377,51.6723633 C96.8696289,58.2397461 93.7446289,66.2597656 93.9887695,75.7324219 L93.9887695,75.7324219 L94.1352539,76.171875 L114.936035,76.171875 C114.936035,70.9960938 116.205566,66.7236328 118.744629,63.3544922 C121.283691,59.9853516 124.872559,58.3007812 129.51123,58.3007812 C133.905762,58.3007812 137.20166,59.6191406 139.398926,62.2558594 C141.596191,64.8925781 142.694824,68.4082031 142.694824,72.8027344 C142.694824,76.171875 141.657227,79.8706055 139.582031,83.8989258 C137.506836,87.9272461 134.003418,92.8466797 129.071777,98.6572266 L129.071777,98.6572266 L96.0395508,136.010742 L96.0395508,150 L167.597168,150 Z" id="2"></path>
                    </g>
                </g>
            </g>
        </g>
    </g>
</svg>