<?xml version="1.0" encoding="UTF-8"?>
<svg width="74px" height="111px" viewBox="0 0 74 111" version="1.1" xmlns="http://www.w3.org/2000/svg" xmlns:xlink="http://www.w3.org/1999/xlink">
    <!-- Generator: Sketch 62 (91390) - https://sketch.com -->
    <title>3</title>
    <desc>Created with Sketch.</desc>
    <g id="Page-1" stroke="none" stroke-width="1" fill="none" fill-rule="evenodd">
        <g id="A4" transform="translate(-439.000000, -3225.000000)" fill="#282828" fill-rule="nonzero">
            <g id="Четвертый-экран" transform="translate(193.000000, 2607.000000)">
                <g id="Слайдер" transform="translate(0.000000, 556.000000)">
                    <g id="Текст" transform="translate(0.000000, 45.000000)">
                        <path d="M282.17041,127.538086 C293.205566,127.538086 302.250977,124.742676 309.306641,119.151855 C316.362305,113.561035 319.890137,105.882812 319.890137,96.1171875 C319.890137,90.0625 318.376465,84.8989258 315.349121,80.6264648 C312.321777,76.3540039 308.024902,73.1679688 302.458496,71.0683594 C307.341309,68.7246094 311.186523,65.5141602 313.994141,61.4370117 C316.801758,57.3598633 318.205566,52.8798828 318.205566,47.9970703 C318.205566,38.2802734 314.958496,30.8217773 308.464355,25.621582 C301.970215,20.4213867 293.205566,17.8212891 282.17041,17.8212891 C272.258301,17.8212891 263.933105,20.53125 257.194824,25.9511719 C250.456543,31.3710938 247.233887,38.2558594 247.526855,46.6054688 L247.526855,46.6054688 L247.67334,47.0449219 L268.327637,47.0449219 C268.327637,43.3339844 269.658203,40.2822266 272.319336,37.8896484 C274.980469,35.4970703 278.26416,34.3007812 282.17041,34.3007812 C286.809082,34.3007812 290.422363,35.6191406 293.010254,38.2558594 C295.598145,40.8925781 296.89209,44.2128906 296.89209,48.2167969 C296.89209,53.0019531 295.65918,56.7128906 293.193359,59.3496094 C290.727539,61.9863281 286.955566,63.3046875 281.877441,63.3046875 L281.877441,63.3046875 L270.085449,63.3046875 L270.085449,79.3447266 L281.877441,79.3447266 C287.346191,79.3447266 291.496582,80.699707 294.328613,83.409668 C297.160645,86.1196289 298.57666,90.2822266 298.57666,95.8974609 C298.57666,100.291992 297.062988,103.929688 294.035645,106.810547 C291.008301,109.691406 287.053223,111.131836 282.17041,111.131836 C277.727051,111.131836 274.101562,109.776855 271.293945,107.066895 C268.486328,104.356934 267.08252,101 267.08252,96.9960938 L267.08252,96.9960938 L246.281738,96.9960938 L246.135254,97.4355469 C245.891113,106.957031 249.406738,114.354492 256.682129,119.62793 C263.95752,124.901367 272.453613,127.538086 282.17041,127.538086 Z" id="3"></path>
                    </g>
                </g>
            </g>
        </g>
    </g>
</svg>