<?xml version="1.0" encoding="UTF-8"?>
<svg width="30px" height="18px" viewBox="0 0 30 18" version="1.1" xmlns="http://www.w3.org/2000/svg" xmlns:xlink="http://www.w3.org/1999/xlink">
    <!-- Generator: Sketch 60 (88103) - https://sketch.com -->
    <title>Shape</title>
    <desc>Created with Sketch.</desc>
    <g id="Symbols" stroke="none" stroke-width="1" fill="none" fill-rule="evenodd">
        <g id="Footer" transform="translate(-372.000000, -129.000000)" fill="#FFFFFF" fill-rule="nonzero">
            <g id="Group-43">
                <g id="Group-59" transform="translate(372.000000, 126.000000)">
                    <g id="vk-social-network-logo-(1)" transform="translate(0.000000, 3.000000)">
                        <path d="M29.8060656,15.480765 C29.7697814,15.4025683 29.7359563,15.3377049 29.7045355,15.2857377 C29.1846448,14.3493989 28.1911475,13.2001093 26.7246448,11.837541 L26.6936612,11.8063388 L26.6781421,11.7910383 L26.662459,11.7753552 L26.6467213,11.7753552 C25.9811475,11.1408743 25.5596721,10.7142623 25.3831694,10.495847 C25.0602186,10.0797814 24.9878689,9.65863388 25.1643716,9.23191257 C25.289071,8.9095082 25.7574863,8.22863388 26.5685246,7.18836066 C26.9951366,6.63704918 27.3330055,6.19519126 27.5825137,5.86229508 C29.3820219,3.46994536 30.1621858,1.94120219 29.9228415,1.27546448 L29.8298907,1.11989071 C29.7674317,1.02622951 29.6062295,0.940546448 29.3465027,0.862404372 C29.0861749,0.78442623 28.7534426,0.771530055 28.3477049,0.823497268 L23.8545902,0.854535519 C23.7818033,0.828743169 23.6778689,0.831147541 23.542459,0.862404372 C23.4072131,0.893661202 23.3395628,0.909344262 23.3395628,0.909344262 L23.2613661,0.948415301 L23.1992896,0.995355191 C23.1472678,1.02639344 23.0900546,1.08098361 23.0275956,1.15901639 C22.9654645,1.23677596 22.9134973,1.32803279 22.8719672,1.43202186 C22.3827869,2.69054645 21.826612,3.86065574 21.2024044,4.94229508 C20.817541,5.58726776 20.4640984,6.14622951 20.1413115,6.6195082 C19.8189617,7.09262295 19.5485246,7.44120219 19.3302732,7.66464481 C19.111694,7.88830601 18.9144262,8.06748634 18.7372678,8.20284153 C18.5603825,8.33825137 18.4253552,8.39546448 18.3318579,8.37453552 C18.2381421,8.35360656 18.1498907,8.33284153 18.0663388,8.3120765 C17.9208197,8.2184153 17.8037705,8.09103825 17.7155191,7.92983607 C17.6268852,7.76863388 17.5672131,7.5657377 17.5360109,7.32131148 C17.5049727,7.07672131 17.486612,6.8663388 17.4813661,6.68945355 C17.4765027,6.51278689 17.4787432,6.26289617 17.4892896,5.9404918 C17.5001093,5.6179235 17.5049727,5.39967213 17.5049727,5.2852459 C17.5049727,4.88994536 17.5126776,4.46092896 17.5281421,3.99808743 C17.5438798,3.5352459 17.556612,3.16852459 17.5672678,2.89836066 C17.5778689,2.6279235 17.5827869,2.34180328 17.5827869,2.04016393 C17.5827869,1.73852459 17.5644262,1.50196721 17.5281421,1.33027322 C17.4922951,1.15879781 17.4372678,0.992349727 17.3647541,0.830983607 C17.2918033,0.669781421 17.1850273,0.545081967 17.044918,0.456557377 C16.9045355,0.368142077 16.73,0.297978142 16.5222951,0.245846995 C15.9709836,0.121092896 15.2689617,0.0536065574 14.4159016,0.0431147541 C12.4814208,0.0223497268 11.2384153,0.14726776 10.6871585,0.417704918 C10.4687432,0.531967213 10.2710929,0.688087432 10.0943716,0.88557377 C9.90710383,1.11448087 9.88098361,1.23939891 10.0161749,1.25994536 C10.6403279,1.35344262 11.0821858,1.57710383 11.3422404,1.93071038 L11.4359563,2.11808743 C11.5088525,2.25327869 11.5816393,2.49262295 11.6544809,2.83579235 C11.7272131,3.17896175 11.774153,3.55857923 11.7948087,3.97442623 C11.8467213,4.73382514 11.8467213,5.38387978 11.7948087,5.92464481 C11.7427322,6.46562842 11.6935519,6.88677596 11.646612,7.1884153 C11.5996721,7.49005464 11.5295082,7.73448087 11.4359563,7.92163934 C11.3422404,8.10885246 11.2798907,8.22327869 11.2486339,8.26480874 C11.2174317,8.3063388 11.1914208,8.33251366 11.170765,8.34278689 C11.0355738,8.39459016 10.8949727,8.42098361 10.7494536,8.42098361 C10.6037158,8.42098361 10.4269945,8.34808743 10.2190164,8.20240437 C10.0110929,8.05672131 9.79530055,7.85661202 9.57163934,7.60174863 C9.34797814,7.3468306 9.0957377,6.99060109 8.81480874,6.53300546 C8.53409836,6.07540984 8.24284153,5.53459016 7.94120219,4.91054645 L7.69163934,4.45797814 C7.53562842,4.1668306 7.32251366,3.74289617 7.0520765,3.18655738 C6.78147541,2.63 6.54229508,2.09163934 6.33437158,1.5715847 C6.25125683,1.3531694 6.12639344,1.18688525 5.96,1.07245902 L5.88191257,1.02551913 C5.83,0.983989071 5.74666667,0.93989071 5.63234973,0.892896175 C5.51786885,0.845956284 5.3984153,0.812295082 5.27349727,0.791584699 L0.998688525,0.822622951 C0.561857923,0.822622951 0.265464481,0.921584699 0.109398907,1.11923497 L0.0469398907,1.21273224 C0.0157377049,1.26480874 0,1.34797814 0,1.46245902 C0,1.57688525 0.0312021858,1.7173224 0.0936612022,1.88360656 C0.717704918,3.35027322 1.3963388,4.7647541 2.12956284,6.12726776 C2.86278689,7.48978142 3.49994536,8.5873224 4.04065574,9.4189071 C4.58147541,10.2510929 5.13273224,11.0365027 5.69442623,11.7747541 C6.25612022,12.5132787 6.6279235,12.9865574 6.80983607,13.1944809 C6.99196721,13.4027869 7.13502732,13.5585246 7.23901639,13.6625137 L7.62912568,14.0368852 C7.87874317,14.2865574 8.24530055,14.5855738 8.72896175,14.9339344 C9.21273224,15.2825137 9.74830601,15.6256831 10.3359563,15.9639891 C10.9237158,16.3017486 11.6074863,16.577377 12.3876503,16.7905464 C13.1677049,17.0039344 13.9269399,17.0895628 14.6654645,17.0482514 L16.4596721,17.0482514 C16.8235519,17.0168306 17.099235,16.9024044 17.286612,16.704918 L17.3486885,16.6267213 C17.3904372,16.5646448 17.4295082,16.4681967 17.4655738,16.3384153 C17.5020765,16.2084153 17.5202186,16.0651913 17.5202186,15.9093989 C17.5095628,15.4622404 17.5436066,15.059235 17.6214208,14.7004372 C17.6991803,14.3417486 17.7878142,14.0713115 17.8869399,13.8891803 C17.9860109,13.7072131 18.0978142,13.5536612 18.2222404,13.4291803 C18.3469399,13.3044262 18.4357923,13.2288525 18.4879235,13.2028415 C18.5397268,13.1766667 18.5810929,13.1589071 18.6122951,13.1482514 C18.8619126,13.065082 19.1556831,13.1456284 19.4940437,13.3902732 C19.8321311,13.6346995 20.149235,13.9365027 20.445847,14.2951913 C20.7422951,14.6542077 21.0984699,15.0569945 21.5144262,15.504153 C21.9306557,15.9514754 22.2945902,16.2839891 22.6065027,16.5027322 L22.9184153,16.6899454 C23.1267213,16.8148634 23.3971585,16.9292896 23.7300546,17.0332787 C24.0623497,17.1372334 24.3534973,17.163224 24.6034973,17.1112568 L28.5973224,17.0489617 C28.9923497,17.0489617 29.2997268,16.9835519 29.5177596,16.8537705 C29.7362295,16.7237705 29.8660109,16.5805464 29.9078689,16.4247541 C29.9496175,16.2687978 29.9518579,16.0918579 29.9157923,15.8940437 C29.8787978,15.6967213 29.8423497,15.5587432 29.8060656,15.480765 Z" id="Shape"></path>
                    </g>
                </g>
            </g>
        </g>
    </g>
</svg>