<?xml version="1.0" encoding="UTF-8"?>
<svg width="32px" height="31px" viewBox="0 0 32 31" version="1.1" xmlns="http://www.w3.org/2000/svg" xmlns:xlink="http://www.w3.org/1999/xlink">
    <!-- Generator: Sketch 60 (88103) - https://sketch.com -->
    <title>phone (1)</title>
    <desc>Created with Sketch.</desc>
    <g id="Page-1" stroke="none" stroke-width="1" fill="none" fill-rule="evenodd">
        <g id="Главная" transform="translate(-1025.000000, -4784.000000)" fill="#000000" fill-rule="nonzero">
            <g id="Group-40" transform="translate(0.000000, 4508.000000)">
                <g id="Group-39" transform="translate(607.000000, 60.800000)">
                    <g id="Group-36" transform="translate(122.000000, 214.826667)">
                        <g id="Group-38" transform="translate(296.000000, 0.000000)">
                            <g id="phone-(1)-2" transform="translate(0.000000, 1.013333)">
                                <g id="phone-(1)" transform="translate(0.000000, 0.000000)">
                                    <path d="M31.455,6.84133 C27.3281875,2.44359 21.83925,0.02109 16,0.02109 C10.16075,0.02109 4.6718125,2.44359 0.545,6.84133 C-0.181625,7.61583333 -0.181625,8.87528 0.545,9.64978333 L3.619625,12.9259533 C4.3436875,13.6952 5.6225,13.6952 6.3465,12.9259533 C7.3765625,11.82883 8.5446875,10.9256967 9.8156875,10.2448633 C10.4525,9.91173 10.864,9.21170667 10.8588125,8.55069667 L11.3224375,5.00010333 C14.723875,3.89835667 17.3114375,3.89905333 20.6790625,4.99947 L21.1374375,8.46171333 C21.1374375,9.21050333 21.5294375,9.89399667 22.170125,10.25088 C23.4463125,10.9350067 24.61575,11.8382033 25.6458125,12.93463 C26.0065625,13.3205833 26.491,13.53237 27.00925,13.53237 C27.5275625,13.53237 28.012,13.3205833 28.3726875,12.9353267 L31.455125,9.64991 C32.1816875,8.87521667 32.1816875,7.61583333 31.455,6.84133 Z" id="Path"></path>
                                    <path d="M24.6745,12.6178367 C24.09375,11.5148233 22.966125,10.83 21.7330625,10.83 L10.2669375,10.83 C9.033875,10.83 7.90625,11.5148233 7.3255,12.6178367 L3.058625,20.7252 C2.802125,21.2133733 2.6666875,21.7629167 2.6666875,22.3144867 L2.6666875,27.0433333 C2.6666875,28.53363 3.8633125,29.7455767 5.333375,29.7455767 L26.6666875,29.7455767 C28.13675,29.7455767 29.333375,28.5336933 29.333375,27.0433333 L29.333375,22.3144233 C29.333375,21.7629167 29.1979375,21.2133733 28.9414375,20.7245033 L24.6745,12.6178367 Z M11.9986875,25.6922433 C11.263,25.6922433 10.665375,25.0859533 10.665375,24.3411533 C10.665375,23.5963533 11.2630625,22.9900633 11.9986875,22.9900633 C12.734375,22.9900633 13.332,23.5963533 13.332,24.3411533 C13.3320625,25.0859533 12.734375,25.6922433 11.9986875,25.6922433 Z M11.9986875,21.63891 C11.263,21.63891 10.665375,21.03262 10.665375,20.28782 C10.665375,19.54302 11.2630625,18.93673 11.9986875,18.93673 C12.734375,18.93673 13.332,19.54302 13.332,20.28782 C13.3320625,21.03262 12.734375,21.63891 11.9986875,21.63891 Z M11.9986875,17.5855767 C11.263,17.5855767 10.665375,16.9792867 10.665375,16.2344867 C10.665375,15.4896867 11.2630625,14.8833967 11.9986875,14.8833967 C12.734375,14.8833967 13.332,15.4896867 13.332,16.2344867 C13.3320625,16.9792867 12.734375,17.5855767 11.9986875,17.5855767 Z M16,25.6922433 C15.2643125,25.6922433 14.6666875,25.0859533 14.6666875,24.3411533 C14.6666875,23.5963533 15.264375,22.9900633 16,22.9900633 C16.735625,22.9900633 17.3333125,23.5963533 17.3333125,24.3411533 C17.3333125,25.0859533 16.7356875,25.6922433 16,25.6922433 Z M16,21.63891 C15.2643125,21.63891 14.6666875,21.03262 14.6666875,20.28782 C14.6666875,19.54302 15.264375,18.93673 16,18.93673 C16.735625,18.93673 17.3333125,19.54302 17.3333125,20.28782 C17.3333125,21.03262 16.7356875,21.63891 16,21.63891 Z M16,17.5855767 C15.2643125,17.5855767 14.6666875,16.9792867 14.6666875,16.2344867 C14.6666875,15.4896867 15.264375,14.8833967 16,14.8833967 C16.735625,14.8833967 17.3333125,15.4896867 17.3333125,16.2344867 C17.3333125,16.9792867 16.7356875,17.5855767 16,17.5855767 Z M19.9986875,25.6922433 C19.263,25.6922433 18.665375,25.0859533 18.665375,24.3411533 C18.665375,23.5963533 19.2630625,22.9900633 19.9986875,22.9900633 C20.734375,22.9900633 21.332,23.5963533 21.332,24.3411533 C21.3320625,25.0859533 20.734375,25.6922433 19.9986875,25.6922433 Z M19.9986875,21.63891 C19.263,21.63891 18.665375,21.03262 18.665375,20.28782 C18.665375,19.54302 19.2630625,18.93673 19.9986875,18.93673 C20.734375,18.93673 21.332,19.54302 21.332,20.28782 C21.3320625,21.03262 20.734375,21.63891 19.9986875,21.63891 Z M19.9986875,17.5855767 C19.263,17.5855767 18.665375,16.9792867 18.665375,16.2344867 C18.665375,15.4896867 19.2630625,14.8833967 19.9986875,14.8833967 C20.734375,14.8833967 21.332,15.4896867 21.332,16.2344867 C21.3320625,16.9792867 20.734375,17.5855767 19.9986875,17.5855767 Z" id="Shape"></path>
                                </g>
                            </g>
                        </g>
                    </g>
                </g>
            </g>
        </g>
    </g>
</svg>