<?xml version="1.0" encoding="UTF-8"?>
<svg width="24px" height="24px" viewBox="0 0 24 24" version="1.1" xmlns="http://www.w3.org/2000/svg" xmlns:xlink="http://www.w3.org/1999/xlink">
    <!-- Generator: Sketch 60 (88103) - https://sketch.com -->
    <title>Combined Shape</title>
    <desc>Created with Sketch.</desc>
    <g id="Symbols" stroke="none" stroke-width="1" fill="none" fill-rule="evenodd">
        <g id="Footer" transform="translate(-434.000000, -126.000000)" fill="#FFFFFF" fill-rule="nonzero">
            <g id="Group-43">
                <g id="Group-59" transform="translate(372.000000, 126.000000)">
                    <g id="instagram-logo" transform="translate(62.000000, 0.000000)">
                        <path d="M17.2808471,1.66977543e-13 C20.9128941,1.66977543e-13 23.8675765,2.95482353 23.8675765,6.58658824 L23.8675765,6.58658824 L23.8675765,17.2809882 C23.8675765,20.9127529 20.9128941,23.8675765 17.2808471,23.8675765 L17.2808471,23.8675765 L6.58644706,23.8675765 C2.95468235,23.8675765 -3.55271368e-15,20.9128941 -3.55271368e-15,17.2809882 L-3.55271368e-15,17.2809882 L-3.55271368e-15,6.58658824 C-3.55271368e-15,2.95482353 2.95468235,1.66977543e-13 6.58644706,1.66977543e-13 L6.58644706,1.66977543e-13 Z M17.2808471,2.11764706 L6.58644706,2.11764706 C4.12235294,2.11764706 2.11764706,4.12249412 2.11764706,6.58658824 L2.11764706,6.58658824 L2.11764706,17.2809882 C2.11764706,19.7452235 4.12235294,21.7499294 6.58644706,21.7499294 L6.58644706,21.7499294 L17.2809882,21.7499294 C19.7452235,21.7499294 21.7500706,19.7452235 21.7500706,17.2809882 L21.7500706,17.2809882 L21.7500706,6.58658824 C21.7500706,4.12249412 19.7450824,2.11764706 17.2808471,2.11764706 L17.2808471,2.11764706 Z M11.9337882,5.784 C15.3249882,5.784 18.0838588,8.54287059 18.0838588,11.9340706 C18.0838588,15.3251294 15.3249882,18.0838588 11.9337882,18.0838588 C8.54258824,18.0838588 5.78371765,15.3251294 5.78371765,11.9340706 C5.78371765,8.54287059 8.54258824,5.784 11.9337882,5.784 Z M11.9337882,7.90150588 C9.71025882,7.90150588 7.90136471,9.7104 7.90136471,11.9339294 C7.90136471,14.1573176 9.7104,15.9660706 11.9337882,15.9660706 C14.1571765,15.9660706 15.9662118,14.1573176 15.9662118,11.9339294 C15.9662118,9.7104 14.1573176,7.90150588 11.9337882,7.90150588 Z M18.3417882,3.98837647 C18.7512,3.98837647 19.1521412,4.15355294 19.4401412,4.44296471 C19.7295529,4.73096471 19.8947294,5.13190588 19.8947294,5.54131765 C19.8947294,5.94931765 19.7295529,6.35025882 19.4401412,6.63967059 C19.1507294,6.92767059 18.7512,7.09425882 18.3417882,7.09425882 C17.9337882,7.09425882 17.5328471,6.92767059 17.2448471,6.63967059 C16.9554353,6.35025882 16.7888471,5.94945882 16.7888471,5.54131765 C16.7888471,5.13190588 16.9552941,4.73096471 17.2448471,4.44296471 C17.5329882,4.15355294 17.9337882,3.98837647 18.3417882,3.98837647 Z" id="Combined-Shape"></path>
                    </g>
                </g>
            </g>
        </g>
    </g>
</svg>