<?xml version="1.0" encoding="UTF-8"?>
<svg width="18px" height="33px" viewBox="0 0 18 33" version="1.1" xmlns="http://www.w3.org/2000/svg" xmlns:xlink="http://www.w3.org/1999/xlink">
    <!-- Generator: Sketch 60 (88103) - https://sketch.com -->
    <title>Shape</title>
    <desc>Created with Sketch.</desc>
    <g id="Page-1" stroke="none" stroke-width="1" fill="none" fill-rule="evenodd">
        <g id="Главная" transform="translate(-729.000000, -4784.000000)" fill="#000000" fill-rule="nonzero">
            <g id="Group-40" transform="translate(0.000000, 4508.000000)">
                <g id="Group-39" transform="translate(607.000000, 60.800000)">
                    <g id="Group-36" transform="translate(122.000000, 214.826667)">
                        <g id="Group-37">
                            <g id="icon-2" transform="translate(0.000000, 1.013333)">
                                <g id="icon">
                                    <path d="M15.5645714,0 L2.36914286,0 C1.10628571,0 0.0868571429,1.03765333 0.0868571429,2.31503238 L0.0868571429,29.4677333 C0.0868571429,30.7439543 1.10628571,31.7804495 2.36914286,31.7804495 L15.5645714,31.7804495 C16.8251429,31.7804495 17.8468571,30.7439543 17.8468571,29.4677333 L17.8468571,2.31503238 C17.8468571,1.03765333 16.8251429,0 15.5645714,0 Z M5.71085714,1.40592762 L12.2251429,1.40592762 C12.3897143,1.40592762 12.5234286,1.6549181 12.5234286,1.96297143 C12.5234286,2.27102476 12.3897143,2.52117333 12.2251429,2.52117333 L5.71085714,2.52117333 C5.54514286,2.52117333 5.41371429,2.27102476 5.41371429,1.96297143 C5.41371429,1.6549181 5.54514286,1.40592762 5.71085714,1.40592762 Z M8.968,29.4955276 C8.16457143,29.4955276 7.51085714,28.8330971 7.51085714,28.0177981 C7.51085714,27.202499 8.16457143,26.5423848 8.968,26.5423848 C9.76914286,26.5423848 10.4228571,27.202499 10.4228571,28.0177981 C10.4228571,28.8330971 9.76914286,29.4955276 8.968,29.4955276 Z M16.1371429,24.4358095 L1.79771429,24.4358095 L1.79771429,3.90625524 L16.1371429,3.90625524 L16.1371429,24.4358095 Z" id="Shape"></path>
                                </g>
                            </g>
                        </g>
                    </g>
                </g>
            </g>
        </g>
    </g>
</svg>