<?xml version="1.0" encoding="UTF-8"?>
<svg width="300px" height="43px" viewBox="0 0 300 43" version="1.1" xmlns="http://www.w3.org/2000/svg" xmlns:xlink="http://www.w3.org/1999/xlink">
    <!-- Generator: Sketch 60 (88103) - https://sketch.com -->
    <title>Group 23</title>
    <desc>Created with Sketch.</desc>
    <g id="Page-1" stroke="none" stroke-width="1" fill="none" fill-rule="evenodd">
        <g id="Главная" transform="translate(-372.000000, -42.000000)" fill-rule="nonzero">
            <g id="Первый-экран">
                <g id="Group-2" transform="translate(370.000000, 32.000000)">
                    <g id="Group-4" transform="translate(2.000000, 0.000000)">
                        <g id="Group-23" transform="translate(0.000000, 10.000000)">
                            <g id="Group-22">
                                <g id="logo_1_AAe" fill="#FFFFFF">
                                    <g id="Group" transform="translate(26.732673, 21.738199) scale(-1, 1) rotate(-180.000000) translate(-26.732673, -21.738199) translate(0.000000, 0.574833)">
                                        <path d="M26.080207,0.291238986 C26.1966365,0.446566446 26.778784,0.912548824 27.3609314,1.3202834 C28.6416559,2.2134163 28.7968952,2.69881461 27.9624838,3.30070851 C27.1862872,3.84435462 27.2056921,4.34916886 28.0401035,5.26171769 C29.0103493,6.32959397 28.9715395,7.14506313 27.9624838,8.19352348 C27.0892626,9.06724044 27.1086675,9.30023163 28.0789133,10.1545327 C28.7968952,10.7952584 28.9327296,11.6107276 28.389392,12.057294 C27.6131953,12.7174357 27.2833118,14.659029 27.8654592,15.222091 C28.1953428,15.5715778 29.3984476,15.6298256 30.1358344,15.3580025 C30.4075032,15.2609229 31.2419146,14.6201971 31.9793014,13.9406395 C34.6765847,11.5136479 37.393273,10.329276 39.683053,10.5816832 C41.2354463,10.7370106 42.923674,11.5524798 44.0103493,12.6591879 C44.4566624,13.1057544 44.8253558,13.5329049 44.8253558,13.6105686 C44.8253558,13.9600554 44.3596378,13.9794713 43.4087969,13.6688164 C42.0116429,13.1834181 39.702458,13.2416659 37.9366106,13.785312 C36.461837,14.2512944 33.8809832,15.4356663 33.3376455,15.8822327 C32.8137128,16.3287992 32.9107374,16.8530293 33.6287193,17.2025161 C34.61837,17.7267463 35.7126824,17.4332455 37.6455369,16.9182789 C38.5510996,16.6770116 40.1034929,16.4416865 42.3027167,16.2123036 C44.2432083,16.1416416 45.8538163,16.4911284 47.1539457,17.1124382 C48.7451488,17.8502437 49.851229,18.8917022 50.6468305,20.3090653 C51.6558862,22.114747 51.3842173,22.697225 49.9870634,21.6293487 C46.9404916,19.2994368 41.9728331,18.6004633 35.3557568,19.532428 C34.851229,19.6100917 34.4631307,19.7848351 34.3467012,20.0178263 C34.2302717,20.2119856 34.152652,21.3963575 34.152652,22.6778091 C34.152652,24.6388182 34.2108668,25.0271369 34.5019405,25.279544 C34.6765847,25.4348715 35.6662354,25.7649423 36.6752911,25.9979335 C41.0025873,27.0269779 45.3686934,28.8132437 47.8525226,30.5995095 C49.9094437,32.0557044 51.0349288,34.3926181 51.5588616,36.5602007 C51.8319492,37.6900021 51.8111255,38.8582825 51.5588616,39.6667499 C51.0931436,41.5695113 50.530401,42.3461486 49.9870634,41.8025025 C49.9094437,41.7054228 49.7153946,41.3559361 49.5601552,40.9870333 C49.0362225,39.7055818 46.9598965,36.3854574 45.7373868,34.8321828 C43.6610608,32.2110319 40.3040103,29.8422881 36.7917206,28.5414207 C35.3945666,28.0171905 34.6571798,28.0948542 33.454075,28.9685712 C31.4553687,30.4053502 32.1151358,30.2888546 25.8085382,30.2888546 C22.8331177,30.3064664 21.1513583,30.3152723 20.76326,30.3152723 C20.2457956,30.3152723 19.6313066,30.0346433 18.919793,29.4733854 C17.8137128,28.6773322 17.6778784,28.6385003 16.3971539,28.6385003 C14.8641656,28.6579163 14.301423,28.8909074 11.8369987,30.5412617 C8.73221216,32.6187665 4.87063389,37.1426787 3.22121604,40.6569625 C2.69728331,41.7442547 2.21216041,42.0354937 1.80465718,41.5112635 C1.51358344,41.1229449 0.970245796,39.6349198 0.970245796,38.1134753 C0.970245796,36.5920308 1.53298836,35.0263421 2.03751617,33.8808021 C3.35705045,30.8325007 8.26649418,28.0171905 15.6015524,26.0950132 C16.3195343,25.9202698 17.0375162,25.6290308 17.1927555,25.4931193 C17.6002587,25.0659688 17.5808538,20.1343219 17.1539457,19.7265873 C16.9987063,19.5518439 16.7464424,19.4159324 16.6300129,19.4159324 C16.4941785,19.4159324 15.3880983,19.3188528 14.1655886,19.2217731 C9.52781371,18.8140385 5.04527814,19.7848351 2.63906856,21.7264284 C2.23156533,22.0564992 1.80465718,22.3283223 1.72703752,22.3283223 C1.35834411,22.3283223 1.5912031,21.260446 2.17335058,20.2314016 C3.02716688,18.7363748 4.11384217,17.7725799 5.82147477,16.9182789 C7.50323415,16.4005207 8.95213454,16.1457797 10.1681759,16.1540558 C12.6335243,16.1708344 13.3699871,16.1346398 14.8059508,16.4841266 C15.7567917,16.7171178 16.4941785,17.1124382 17.4644243,17.1124382 C18.4346701,17.1124382 18.7063389,16.4647107 18.5899094,16.0375602 C18.4928849,15.6880734 15.0582147,14.076551 13.5446313,13.6882324 C11.759379,13.22225 9.72186287,13.22225 8.38292367,13.6688164 C6.86934023,14.1930466 6.65588616,13.8435598 7.76196636,12.7174357 C9.56662354,10.8729222 12.2056921,10.1157008 14.4760673,10.7758425 C16.0090556,11.2224089 17.5614489,12.0378781 18.7645537,13.0475066 C21.6752911,15.4744981 21.7723157,15.5327459 22.393273,15.5327459 C22.7425614,15.5327459 23.1694696,15.4162503 23.3829237,15.2803388 C23.7128072,15.0279317 23.7322122,14.6201971 23.6934023,8.27118721 L23.6545925,1.55327459 L24.23674,0.951380689 C24.5666235,0.621309837 24.8382924,0.271823054 24.8382924,0.174743392 C24.8382924,-0.116495595 25.847348,-0.0194159324 26.080207,0.291238986 Z M15.8538163,21.7652602 C16.1836999,22.0370833 16.1836999,23.3767826 15.8732212,23.6486057 C15.7373868,23.7651013 14.7477361,23.9980925 13.6804657,24.1728359 C9.19793014,24.9300572 5.45278137,26.5998274 3.20181113,28.8326596 C2.4450194,29.589881 1.57179819,30.6383414 1.26131953,31.1625715 C0.737386805,32.0945363 0.446313066,32.4246071 0.155239327,32.4246071 C0.0582147477,32.4246071 7.10542736e-15,31.5120583 7.10542736e-15,30.4053502 C7.10542736e-15,28.9297393 0.970245796,26.6262451 1.8240621,25.4931193 C3.49963526,23.2694146 6.17076326,21.9788355 10.2069858,21.5322691 C12.457956,21.2992779 15.4269082,21.4157735 15.8538163,21.7652602 Z M40.0323415,21.7652602 C46.5717982,21.7264284 51.0349288,24.6846519 52.1992238,28.0171905 C52.4569359,28.7548347 52.7813713,29.7327943 52.7813713,30.4830139 C52.7813713,32.0557044 52.7425614,32.2304478 52.4320828,32.2304478 C52.1992238,32.2304478 51.8887451,31.880961 51.5588616,31.2984831 C50.1228978,28.6773322 47.2509702,26.5609955 43.2923674,25.2212962 C41.4683053,24.5999864 38.0336352,23.8815969 36.8887451,23.8815969 C35.8990944,23.8815969 35.3557568,23.3185348 35.6274256,22.5613135 C35.8602846,21.9011718 36.5394567,21.7846762 40.0323415,21.7652602 Z M30.3880983,19.8042511 C30.232859,19.9595785 29.534282,21.4157735 28.85511,23.0078799 C28.156533,24.6194023 27.457956,26.1920928 27.2833118,26.5027478 C27.1086675,26.8328186 26.9728331,27.1823054 26.9728331,27.298801 C26.9728331,28.1142701 29.0103493,28.2307657 30.1358344,27.4735444 C30.5239327,27.2017213 30.8926261,26.7745708 30.931436,26.5415796 C30.9896507,26.3085884 31.0672704,24.7941457 31.1254851,23.1632074 C31.1836999,20.8721274 31.14489,20.1537379 30.9508409,19.8624989 C30.7179819,19.5518439 30.6597671,19.5518439 30.3880983,19.8042511 Z M20.7438551,20.1925697 C20.3557568,20.1925697 20.3557568,20.2508175 20.4139715,23.3767826 C20.4721863,26.4639159 20.4915912,26.5804115 20.9573092,27.0852257 C21.228978,27.3764647 21.6170763,27.6871196 21.8305304,27.7647834 C22.4902975,28.0366064 23.7904269,27.9783586 24.0620957,27.6677037 C24.2561449,27.4347125 24.0620957,26.8328186 22.9948254,24.425243 C22.2962484,22.7943047 21.5782665,21.1633663 21.4230272,20.8332955 C21.2483829,20.406145 21.0155239,20.1925697 20.7438551,20.1925697 Z M25.614489,21.8623399 C25.2457956,21.8817558 24.7412678,21.9011718 24.5084088,21.9205877 C23.9456662,21.9400036 23.9262613,22.5807294 24.4307891,23.7262694 C24.6248383,24.1922518 24.8965071,24.8135616 25.0129366,25.1048006 C25.3428202,25.9591016 25.8279431,25.6872786 26.5265201,24.2699155 C27.2833118,22.7166409 27.3415265,22.0176674 26.7399741,21.9011718 C26.4877102,21.842924 25.9831824,21.823508 25.614489,21.8623399 Z M22.8201811,18.3674721 C22.4126779,18.5227995 22.4320828,19.3771006 22.839586,19.8430829 C23.1112549,20.1537379 23.4799483,20.1925697 25.5756792,20.1925697 C27.5743855,20.1925697 28.0789133,20.1343219 28.3699871,19.8624989 C28.7968952,19.4741802 28.835705,18.5227995 28.4087969,18.3674721 C28.0206986,18.2121446 23.2082794,18.2121446 22.8201811,18.3674721 Z M25.3439143,1.84471533 L25.3234153,1.84451358 C24.9547219,1.84451358 24.9353169,1.99984104 24.8771022,7.66929331 C24.8576973,10.8729222 24.8771022,13.5911527 24.9353169,13.7270642 C25.0517464,14.0571351 25.3234153,14.0377191 25.5950841,13.7076483 C25.7503234,13.5329049 25.8085382,11.766055 25.7697283,7.64987737 C25.712612,2.1064455 25.6928547,1.8523311 25.3439143,1.84471533 Z" id="Combined-Shape"></path>
                                    </g>
                                </g>
                                <g id="Автобезопасность" transform="translate(66.038810, 15.040467)">
                                    <path d="M3.70245796,16.3792806 L5.42561449,12.1854392 L10.9676585,12.1854392 L11.5032342,16.3792806 L15.0426908,16.3792806 L12.5278137,1.30475066 C12.4812419,0.745571805 11.9689521,0.302888546 11.3868047,0.302888546 L8.03363519,0.302888546 C7.45148771,0.302888546 6.96248383,0.605777091 6.75291074,1.16495595 L0,16.3792806 L3.70245796,16.3792806 Z M10.5950841,9.3662458 L6.58990944,9.3662458 L8.61578266,4.47343083 C8.82535576,3.96085021 9.01164295,3.40167136 9.17464424,2.93568898 L9.84993532,2.93568898 C9.87322122,3.4482696 9.89650712,3.98414933 9.96636481,4.49672995 L10.5950841,9.3662458 Z M23.5886158,16.5656735 C27.3609314,16.5656735 28.9443726,15.7968026 29.4333765,12.5116269 C29.8059508,9.94872377 29.1073739,8.31778545 26.6856404,8.1313925 L26.7089263,7.99159778 C28.7813713,7.80520483 29.6196636,6.68684713 29.9456662,4.45013171 C30.4113842,1.07175947 28.7580854,0.116495595 24.7761966,0.116495595 L24.4508352,0.116495595 C22.1058895,0.118785867 20.6464931,0.14688575 18.931436,0.302888546 L16.6727038,16.3792806 C18.7218629,16.5423744 20.3751617,16.5656735 23.5886158,16.5656735 Z M23.9379043,6.84994096 L21.469599,6.84994096 L22.0517464,2.81919339 L24.6364812,2.81919339 C26.2897801,2.81919339 26.7554981,3.14538105 26.545925,4.65982378 C26.2897801,6.4072577 25.6610608,6.84994096 23.9379043,6.84994096 Z M23.0316072,13.8627946 L20.4915912,13.8629757 L21.1435964,9.2497502 L23.8214748,9.2497502 C25.7309185,9.27304932 26.1733506,9.71573258 25.9172057,11.556363 C25.6640392,13.3986189 25.0469125,13.8524886 23.0316072,13.8627946 Z M38.3518758,16.3792806 L40.2147477,3.19197929 L44.9883571,3.19197929 L45.3842173,0.302888546 L32.2742561,0.302888546 L31.8783959,3.19197929 L36.6520052,3.19197929 L34.7891332,16.3792806 L38.3518758,16.3792806 Z M51.5549806,16.6821691 C56.3518758,16.6821691 58.4243208,14.8648379 59.2858991,8.48087928 C60.1707633,2.05032246 58.1681759,0 53.3945666,0 C48.4812419,0 46.4786546,1.98042511 45.6170763,8.20128985 C44.7554981,14.6784449 46.6649418,16.6821691 51.5549806,16.6821691 Z M51.6248383,13.8163775 C49.2263907,13.8163775 48.7373868,12.6747207 49.3428202,8.48087928 C49.9948254,4.00744845 50.8098318,2.86579163 53.2781371,2.86579163 C55.6532988,2.86579163 56.2121604,3.89095286 55.5834411,8.20128985 C54.931436,12.6281224 54.0698577,13.8163775 51.6248383,13.8163775 Z" id="АВТО" fill="#FFFFFF"></path>
                                    <path d="M67.5989651,16.5889727 C71.3479948,16.5889727 72.8615783,15.5638114 73.3971539,11.8126533 C73.9327296,8.08479426 72.4424321,6.82664184 68.087969,6.82664184 L65.7826649,6.82664184 L66.3182406,3.05218458 L73.373868,3.05218458 L74.0491591,0.302888546 C72.232859,0.20969207 70.4631307,0.139794713 68.6701164,0.139794713 C66.8305304,0.139794713 64.9676585,0.186392951 63.1513583,0.302888546 L60.8926261,16.3792806 C62.8952135,16.5423744 64.4553687,16.5889727 67.5989651,16.5889727 Z M67.0860907,13.8628274 L64.7813713,13.8629757 L65.4333765,9.2497502 L67.8783959,9.2497502 C69.9042691,9.2497502 70.1138422,9.66913434 69.8809832,11.4398674 C69.6276843,13.4443682 69.1239011,13.8539725 67.0860907,13.8628274 L67.0860907,13.8628274 Z M86.1345408,16.2161868 L86.2043984,13.5833863 L80.2664942,13.5833863 C79.38163,13.5833863 79.1021992,13.2571987 79.2186287,12.3951313 L79.6610608,9.29634844 L85.9948254,9.29634844 L86.3208279,6.7800436 L80.0103493,6.7800436 L80.3363519,4.35693523 C80.4527814,3.40167136 80.8020699,3.09878281 81.686934,3.09878281 L87.694696,3.09878281 L88.1371281,0.489281497 C86.0181113,0.256290308 83.2936611,0.232991189 80.7322122,0.232991189 C78.4967658,0.232991189 77.1694696,1.44454537 76.8900388,3.40167136 L75.6326003,12.5815242 C75.3065977,14.9114361 76.4708926,16.4491779 79.1720569,16.4491779 L79.6402153,16.4491779 C81.7708851,16.4480698 84.205023,16.4331096 86.1345408,16.2161868 Z M93.912031,16.5656735 C97.6843467,16.5656735 99.1047865,15.680307 99.5472186,12.5116269 C99.919793,9.87882641 99.1746442,8.34108457 96.9624838,8.1313925 L96.9857697,7.99159778 C99.0582147,7.80520483 99.8732212,6.68684713 100.199224,4.45013171 C100.664942,1.11835771 98.9417853,0.116495595 95.1228978,0.116495595 C93.1435964,0.116495595 91.6300129,0.232991189 90.0465718,0.559178854 L90.1630013,3.12208193 C91.6532988,2.9589881 92.9340233,2.81919339 94.7270375,2.81919339 C96.4269082,2.81919339 96.8693402,3.09878281 96.6597671,4.65982378 C96.4269082,6.31406122 95.8447607,6.80334272 94.14489,6.80334272 L91.1875809,6.80334272 L90.8848642,9.29634844 L94.0051746,9.29634844 C95.7981889,9.29634844 96.3104787,9.7390317 96.0310479,11.556363 C95.774903,13.3736943 95.076326,13.8629757 93.1901682,13.8629757 C91.606727,13.8629757 89.8835705,13.6998819 88.160414,13.4435916 L87.7412678,15.8434009 C89.4877102,16.3326824 91.2108668,16.5656735 93.912031,16.5656735 Z M108.186287,16.6821691 C112.983182,16.6821691 115.055627,14.8648379 115.917206,8.48087928 C116.80207,2.05032246 114.799483,0 110.025873,0 C105.112549,0 103.109961,1.98042511 102.248383,8.20128985 C101.386805,14.6784449 103.296248,16.6821691 108.186287,16.6821691 Z M108.256145,13.8163775 C105.857697,13.8163775 105.368693,12.6747207 105.974127,8.48087928 C106.626132,4.00744845 107.441138,2.86579163 109.909444,2.86579163 C112.284605,2.86579163 112.843467,3.89095286 112.214748,8.20128985 C111.562743,12.6281224 110.701164,13.8163775 108.256145,13.8163775 Z M121.086675,16.3792806 L122.996119,2.86579163 L128.561449,2.86579163 L126.652005,16.3792806 L130.238034,16.3792806 L132.496766,0.302888546 L119.782665,0.302888546 L117.523933,16.3792806 L121.086675,16.3792806 Z M135.640362,16.3792806 L137.363519,12.1854392 L142.905563,12.1854392 L143.441138,16.3792806 L146.980595,16.3792806 L144.465718,1.30475066 C144.419146,0.745571805 143.906856,0.302888546 143.324709,0.302888546 L139.971539,0.302888546 C139.389392,0.302888546 138.900388,0.605777091 138.690815,1.16495595 L131.937904,16.3792806 L135.640362,16.3792806 Z M142.532988,9.3662458 L138.527814,9.3662458 L140.553687,4.47343083 C140.76326,3.96085021 140.949547,3.40167136 141.112549,2.93568898 L141.78784,2.93568898 C141.811125,3.4482696 141.834411,3.98414933 141.904269,4.49672995 L142.532988,9.3662458 Z M154.711514,16.65887 C156.900388,16.65887 158.274256,16.4957762 159.834411,16.0297938 L159.694696,13.3736943 C158.274256,13.5367881 157.016818,13.6066854 154.827943,13.5833863 C152.499353,13.5833863 152.080207,12.4650286 152.639069,8.48087928 C153.244502,3.91425198 154.199224,3.09878281 156.527814,3.09878281 L156.821405,3.09897292 C158.587873,3.10135629 159.562743,3.12686124 160.998706,3.21527841 L161.464424,0.582477973 C160.043984,0.20969207 158.902975,0.0232991189 156.667529,0.0232991189 C151.707633,0.0232991189 149.821475,1.98042511 148.936611,8.20128985 C148.098318,14.2357616 149.751617,16.65887 154.711514,16.65887 Z M165.516171,16.3792806 L166.517464,9.22645109 L172.082794,9.22645109 L171.081501,16.3792806 L174.644243,16.3792806 L176.902975,0.302888546 L173.340233,0.302888546 L172.478655,6.45385594 L166.913325,6.45385594 L167.774903,0.302888546 L164.21216,0.302888546 L161.953428,16.3792806 L165.516171,16.3792806 Z M184.447607,16.6821691 C189.244502,16.6821691 191.316947,14.8648379 192.178525,8.48087928 C193.063389,2.05032246 191.060802,0 186.287193,0 C181.373868,0 179.371281,1.98042511 178.509702,8.20128985 C177.648124,14.6784449 179.557568,16.6821691 184.447607,16.6821691 Z M184.517464,13.8163775 C182.119017,13.8163775 181.630013,12.6747207 182.235446,8.48087928 C182.887451,4.00744845 183.702458,2.86579163 186.170763,2.86579163 C188.545925,2.86579163 189.104787,3.89095286 188.476067,8.20128985 C187.824062,12.6281224 186.962484,13.8163775 184.517464,13.8163775 Z M200.119017,16.65887 C202.307891,16.65887 203.681759,16.4957762 205.241915,16.0297938 L205.102199,13.3736943 C203.681759,13.5367881 202.424321,13.6066854 200.235446,13.5833863 C197.906856,13.5833863 197.48771,12.4650286 198.046572,8.48087928 C198.652005,3.91425198 199.606727,3.09878281 201.935317,3.09878281 L202.228908,3.09897292 C203.995377,3.10135629 204.970246,3.12686124 206.40621,3.21527841 L206.871928,0.582477973 C205.451488,0.20969207 204.310479,0.0232991189 202.075032,0.0232991189 C197.115136,0.0232991189 195.228978,1.98042511 194.344114,8.20128985 C193.505821,14.2357616 195.15912,16.65887 200.119017,16.65887 Z M214.393273,16.3792806 L216.256145,3.19197929 L221.029754,3.19197929 L221.425614,0.302888546 L208.315653,0.302888546 L207.919793,3.19197929 L212.693402,3.19197929 L210.83053,16.3792806 L214.393273,16.3792806 Z M227.899094,16.5656735 C231.67141,16.5656735 233.09185,15.4939141 233.627426,11.5796621 C234.186287,7.57221364 232.69599,6.26746298 228.43467,6.26746298 L226.199224,6.26746298 L227.037516,0.302888546 L223.474774,0.302888546 L221.192755,16.3792806 C223.172057,16.5423744 224.755498,16.5656735 227.899094,16.5656735 Z M227.31411,13.8162518 L225.128072,13.8163775 L225.826649,8.76046871 L228.178525,8.76046871 C230.227684,8.76046871 230.3674,9.3662458 230.087969,11.3233718 C229.811575,13.4435916 229.33014,13.808568 227.31411,13.8162518 L227.31411,13.8162518 Z" id="БЕЗОПАСНОСТЬ" fill="#FFB400"></path>
                                </g>
                            </g>
                        </g>
                    </g>
                </g>
            </g>
        </g>
    </g>
</svg>