<?xml version="1.0" encoding="UTF-8"?>
<svg width="50px" height="67px" viewBox="0 0 50 67" version="1.1" xmlns="http://www.w3.org/2000/svg" xmlns:xlink="http://www.w3.org/1999/xlink">
    <!-- Generator: Sketch 60 (88103) - https://sketch.com -->
    <title>placeholder-filled-point (1)</title>
    <desc>Created with Sketch.</desc>
    <g id="Page-1" stroke="none" stroke-width="1" fill="none" fill-rule="evenodd">
        <g id="A4" transform="translate(-939.000000, -7653.000000)" fill="#000000" fill-rule="nonzero">
            <g id="Group-40" transform="translate(4.000000, 7243.000000)">
                <g id="Rectangle-2">
                    <g id="placeholder-filled-point-(1)" transform="translate(935.000000, 410.000000)">
                        <path d="M25.2431507,0 C11.6582192,0 0.604794521,11.0534247 0.604794521,24.639726 C0.604794521,28.1835616 1.33013699,31.5671233 2.75958904,34.6972603 C8.91986301,48.1773973 20.7308219,62.409589 24.2047945,66.45 C24.4650685,66.7520548 24.8445205,66.9260274 25.2438356,66.9260274 C25.6431507,66.9260274 26.0226027,66.7520548 26.2828767,66.45 C29.7554795,62.410274 41.5664384,48.1787671 47.7287671,34.6972603 C49.1589041,31.5671233 49.8835616,28.1835616 49.8835616,24.639726 C49.8821918,11.0534247 38.8287671,0 25.2431507,0 Z M25.2431507,37.4376712 C18.1863014,37.4376712 12.4445205,31.6958904 12.4445205,24.6390411 C12.4445205,17.5815068 18.1863014,11.839726 25.2431507,11.839726 C32.3,11.839726 38.0417808,17.5815068 38.0417808,24.6390411 C38.0424658,31.6958904 32.3006849,37.4376712 25.2431507,37.4376712 Z" id="Shape"></path>
                    </g>
                </g>
            </g>
        </g>
    </g>
</svg>