<?xml version="1.0" encoding="UTF-8"?>
<svg width="92px" height="21px" viewBox="0 0 92 21" version="1.1" xmlns="http://www.w3.org/2000/svg" xmlns:xlink="http://www.w3.org/1999/xlink">
    <!-- Generator: Sketch 60 (88103) - https://sketch.com -->
    <title>Redder</title>
    <desc>Created with Sketch.</desc>
    <g id="Symbols" stroke="none" stroke-width="1" fill="none" fill-rule="evenodd">
        <g id="Footer" transform="translate(-1456.000000, -429.000000)" fill="#F8F5F2" fill-rule="nonzero">
            <g id="Group-43">
                <g id="Group-58" transform="translate(372.000000, 397.000000)">
                    <g id="Redder-лого-2" transform="translate(1084.000000, 32.000000)">
                        <g id="Redder-лого">
                            <path d="M10.8322581,20.3956263 L6.89032258,13.3154303 L3.95483871,13.3154303 L3.95483871,20.3956263 L0.0967741935,20.3956263 L0.0967741935,0 L7.92473118,0 C9.73262553,0 11.2702445,0.660423201 12.5376344,1.98128942 C13.8050243,3.30215563 14.4387097,4.894941 14.4387097,6.7596933 C14.4387097,8.022286 14.0939102,9.19259476 13.4043011,10.2706547 C12.7146919,11.3487146 11.8014394,12.1596754 10.6645161,12.7035615 L14.9978495,20.3956263 L10.8322581,20.3956263 Z M3.95483871,3.75862257 L3.95483871,9.78990064 L7.92473118,9.78990064 C8.65161654,9.78990064 9.27598305,9.49368141 9.79784946,8.90123406 C10.3197159,8.30878672 10.5806452,7.59494693 10.5806452,6.7596933 C10.5806452,5.92443966 10.3197159,5.21545593 9.79784946,4.63272084 C9.27598305,4.04998574 8.65161654,3.75862257 7.92473118,3.75862257 L3.95483871,3.75862257 Z M19.4430108,14.6557144 C19.927601,16.4816177 21.2415663,17.3945556 23.3849462,17.3945556 C24.7641646,17.3945556 25.8078817,16.9089503 26.516129,15.9377251 L29.4236559,17.6859217 C28.0444375,19.7643435 26.0129167,20.8035389 23.3290323,20.8035389 C21.0179096,20.8035389 19.1634478,20.0751309 17.7655914,18.6182932 C16.3677349,17.1614554 15.6688172,15.3258675 15.6688172,13.1114741 C15.6688172,10.9165052 16.358416,9.08577325 17.7376344,7.61922327 C19.1168528,6.15267328 20.8874444,5.41940928 23.0494624,5.41940928 C25.0996518,5.41940928 26.7910328,6.15752933 28.1236559,7.63379157 C29.456279,9.11005381 30.1225806,10.9359297 30.1225806,13.1114741 C30.1225806,13.5970866 30.0759861,14.1118282 29.9827957,14.6557144 L19.4430108,14.6557144 Z M19.3870968,11.7420534 L26.516129,11.7420534 C26.3111101,10.7514038 25.8870968,10.0132837 25.244086,9.52767116 C24.601072,9.04205858 23.8695382,8.79925593 23.0494624,8.79925593 C22.0802819,8.79925593 21.2788562,9.05662674 20.6451613,9.57137607 C20.0114663,10.0861254 19.5921157,10.8096773 19.3870968,11.7420534 Z M43.1225806,0 L46.7290323,0 L46.7290323,20.3956263 L43.1225806,20.3956263 L43.1225806,18.6765664 C42.0602098,20.0945552 40.5505474,20.8035389 38.5935484,20.8035389 C36.7111017,20.8035389 35.1035909,20.0605627 33.7709677,18.5745883 C32.4383446,17.0886138 31.772043,15.2675939 31.772043,13.1114741 C31.772043,10.9553542 32.4383446,9.13433437 33.7709677,7.64835987 C35.1035909,6.16238538 36.7111017,5.41940928 38.5935484,5.41940928 C40.5505474,5.41940928 42.0602098,6.12839301 43.1225806,7.54638174 L43.1225806,0 Z M36.4688172,16.0834082 C37.2143406,16.8409638 38.146231,17.2197359 39.2645161,17.2197359 C40.3828013,17.2197359 41.3053727,16.8361078 42.0322581,16.0688399 C42.7591434,15.301572 43.1225806,14.3157932 43.1225806,13.1114741 C43.1225806,11.9071549 42.7591434,10.9213761 42.0322581,10.1541083 C41.3053727,9.38684038 40.3828013,9.0032122 39.2645161,9.0032122 C38.146231,9.0032122 37.2190001,9.38684038 36.4827957,10.1541083 C35.7465913,10.9213761 35.3784946,11.9071549 35.3784946,13.1114741 C35.3784946,14.3157932 35.7419318,15.3064281 36.4688172,16.0834082 Z M60.6236559,0 L64.2301075,0 L64.2301075,20.3956263 L60.6236559,20.3956263 L60.6236559,18.6765664 C59.5612851,20.0945552 58.0516227,20.8035389 56.0946237,20.8035389 C54.212177,20.8035389 52.6046661,20.0605627 51.272043,18.5745883 C49.9394199,17.0886138 49.2731183,15.2675939 49.2731183,13.1114741 C49.2731183,10.9553542 49.9394199,9.13433437 51.272043,7.64835987 C52.6046661,6.16238538 54.212177,5.41940928 56.0946237,5.41940928 C58.0516227,5.41940928 59.5612851,6.12839301 60.6236559,7.54638174 L60.6236559,0 Z M53.9698925,16.0834082 C54.7154159,16.8409638 55.6473062,17.2197359 56.7655914,17.2197359 C57.8838766,17.2197359 58.806448,16.8361078 59.5333333,16.0688399 C60.2602187,15.301572 60.6236559,14.3157932 60.6236559,13.1114741 C60.6236559,11.9071549 60.2602187,10.9213761 59.5333333,10.1541083 C58.806448,9.38684038 57.8838766,9.0032122 56.7655914,9.0032122 C55.6473062,9.0032122 54.7200754,9.38684038 53.983871,10.1541083 C53.2476666,10.9213761 52.8795699,11.9071549 52.8795699,13.1114741 C52.8795699,14.3157932 53.2430071,15.3064281 53.9698925,16.0834082 Z M70.5763441,14.6557144 C71.0609343,16.4816177 72.3748997,17.3945556 74.5182796,17.3945556 C75.897498,17.3945556 76.9412151,16.9089503 77.6494624,15.9377251 L80.5569892,17.6859217 C79.1777709,19.7643435 77.14625,20.8035389 74.4623656,20.8035389 C72.1512429,20.8035389 70.2967812,20.0751309 68.8989247,18.6182932 C67.5010683,17.1614554 66.8021505,15.3258675 66.8021505,13.1114741 C66.8021505,10.9165052 67.4917494,9.08577325 68.8709677,7.61922327 C70.2501861,6.15267328 72.0207777,5.41940928 74.1827957,5.41940928 C76.2329852,5.41940928 77.9243661,6.15752933 79.2569892,7.63379157 C80.5896124,9.11005381 81.255914,10.9359297 81.255914,13.1114741 C81.255914,13.5970866 81.2093195,14.1118282 81.116129,14.6557144 L70.5763441,14.6557144 Z M70.5204301,11.7420534 L77.6494624,11.7420534 C77.4444434,10.7514038 77.0204301,10.0132837 76.3774194,9.52767116 C75.7344054,9.04205858 75.0028715,8.79925593 74.1827957,8.79925593 C73.2136153,8.79925593 72.4121896,9.05662674 71.7784946,9.57137607 C71.1447997,10.0861254 70.725449,10.8096773 70.5204301,11.7420534 Z M87.3784946,8.33307019 C87.7139802,7.40069404 88.2684549,6.70142241 89.0419355,6.23523434 C89.815416,5.76904626 90.6774146,5.53595572 91.627957,5.53595572 L91.627957,9.73162742 C90.5283099,9.5956559 89.5451656,9.82874644 88.6784946,10.430906 C87.8118237,11.0330656 87.3784946,12.0334126 87.3784946,13.4319768 L87.3784946,20.3956263 L83.772043,20.3956263 L83.772043,5.82732181 L87.3784946,5.82732181 L87.3784946,8.33307019 Z" id="Redder"></path>
                        </g>
                    </g>
                </g>
            </g>
        </g>
    </g>
</svg>